<mxfile host="app.diagrams.net" agent="Mozilla/5.0 (Windows NT 10.0; Win64; x64) AppleWebKit/537.36 (KHTML, like Gecko) Chrome/130.0.0.0 Safari/537.36" version="24.8.3">
  <diagram name="pipeline-overview" id="f62y7Y6bWCRt-viG8yel">
    <mxGraphModel dx="934" dy="525" grid="1" gridSize="10" guides="1" tooltips="1" connect="1" arrows="1" fold="1" page="1" pageScale="1" pageWidth="850" pageHeight="1100" math="0" shadow="0">
      <root>
        <mxCell id="0" />
        <mxCell id="1" parent="0" />
        <mxCell id="yeCOO_AYRYMsANn-B3B7-1" value="" style="rounded=1;whiteSpace=wrap;html=1;arcSize=0;spacing=2;strokeColor=none;" parent="1" vertex="1">
          <mxGeometry x="129.12" y="359" width="583" height="312" as="geometry" />
        </mxCell>
        <mxCell id="yeCOO_AYRYMsANn-B3B7-3" value="" style="shape=cylinder3;whiteSpace=wrap;html=1;boundedLbl=1;backgroundOutline=1;size=12.256893136160699;rotation=90;fillColor=#FFFBED;strokeColor=#d6b656;" parent="1" vertex="1">
          <mxGeometry x="352.87" y="310" width="135.5" height="537.75" as="geometry" />
        </mxCell>
        <mxCell id="yeCOO_AYRYMsANn-B3B7-4" value="Launcher" style="rounded=1;whiteSpace=wrap;html=1;fillColor=#f5f5f5;strokeColor=#666666;fontStyle=1;fontColor=#333333;aspect=fixed;" parent="1" vertex="1">
          <mxGeometry x="380.62" y="379.87" width="80" height="80" as="geometry" />
        </mxCell>
        <mxCell id="yeCOO_AYRYMsANn-B3B7-5" style="edgeStyle=orthogonalEdgeStyle;rounded=0;orthogonalLoop=1;jettySize=auto;html=1;exitX=0.5;exitY=1;exitDx=0;exitDy=0;entryX=0;entryY=0.5;entryDx=0;entryDy=0;entryPerimeter=0;" parent="1" source="yeCOO_AYRYMsANn-B3B7-4" target="yeCOO_AYRYMsANn-B3B7-3" edge="1">
          <mxGeometry relative="1" as="geometry" />
        </mxCell>
        <mxCell id="yeCOO_AYRYMsANn-B3B7-6" value="Number of text strings&lt;div&gt;&amp;nbsp;to generate&lt;/div&gt;" style="edgeLabel;html=1;align=center;verticalAlign=middle;resizable=0;points=[];fontSize=11;" parent="yeCOO_AYRYMsANn-B3B7-5" vertex="1" connectable="0">
          <mxGeometry x="-0.1467" y="-1" relative="1" as="geometry">
            <mxPoint x="-70" as="offset" />
          </mxGeometry>
        </mxCell>
        <mxCell id="yeCOO_AYRYMsANn-B3B7-7" value="Generator" style="whiteSpace=wrap;html=1;aspect=fixed;fillColor=#f5f5f5;strokeColor=#666666;fontStyle=1;fontColor=#333333;rounded=1;" parent="1" vertex="1">
          <mxGeometry x="270.5" y="539.87" width="80" height="80" as="geometry" />
        </mxCell>
        <mxCell id="yeCOO_AYRYMsANn-B3B7-8" value="Analyzer" style="whiteSpace=wrap;html=1;aspect=fixed;fillColor=#f5f5f5;strokeColor=#666666;fontStyle=1;fontColor=#333333;rounded=1;" parent="1" vertex="1">
          <mxGeometry x="470.5" y="539.87" width="80" height="80" as="geometry" />
        </mxCell>
        <mxCell id="yeCOO_AYRYMsANn-B3B7-9" value="" style="endArrow=none;dashed=1;html=1;rounded=0;exitX=1;exitY=1;exitDx=0;exitDy=0;entryX=0;entryY=1;entryDx=0;entryDy=0;" parent="1" source="yeCOO_AYRYMsANn-B3B7-13" target="yeCOO_AYRYMsANn-B3B7-14" edge="1">
          <mxGeometry width="50" height="50" relative="1" as="geometry">
            <mxPoint x="365" y="559.87" as="sourcePoint" />
            <mxPoint x="415" y="509.87" as="targetPoint" />
          </mxGeometry>
        </mxCell>
        <mxCell id="yeCOO_AYRYMsANn-B3B7-10" value="" style="endArrow=none;html=1;rounded=0;exitX=1;exitY=1;exitDx=0;exitDy=0;entryX=1;entryY=0.5;entryDx=0;entryDy=0;" parent="1" source="yeCOO_AYRYMsANn-B3B7-15" target="yeCOO_AYRYMsANn-B3B7-8" edge="1">
          <mxGeometry width="50" height="50" relative="1" as="geometry">
            <mxPoint x="616.5" y="579.54" as="sourcePoint" />
            <mxPoint x="550.5" y="579.54" as="targetPoint" />
          </mxGeometry>
        </mxCell>
        <mxCell id="yeCOO_AYRYMsANn-B3B7-11" value="" style="endArrow=none;html=1;rounded=0;exitX=0;exitY=0.5;exitDx=0;exitDy=0;" parent="1" source="yeCOO_AYRYMsANn-B3B7-8" edge="1">
          <mxGeometry width="50" height="50" relative="1" as="geometry">
            <mxPoint x="470.5" y="579.54" as="sourcePoint" />
            <mxPoint x="425" y="579.87" as="targetPoint" />
          </mxGeometry>
        </mxCell>
        <mxCell id="yeCOO_AYRYMsANn-B3B7-12" value="" style="endArrow=none;html=1;rounded=0;entryX=1;entryY=0.5;entryDx=0;entryDy=0;" parent="1" target="yeCOO_AYRYMsANn-B3B7-7" edge="1">
          <mxGeometry width="50" height="50" relative="1" as="geometry">
            <mxPoint x="395" y="579.87" as="sourcePoint" />
            <mxPoint x="350.5" y="579.54" as="targetPoint" />
          </mxGeometry>
        </mxCell>
        <mxCell id="yeCOO_AYRYMsANn-B3B7-13" value="PIPE" style="text;html=1;align=center;verticalAlign=middle;whiteSpace=wrap;rounded=0;fontSize=10;fontColor=#333333;" parent="1" vertex="1">
          <mxGeometry x="350" y="559.87" width="45" height="20" as="geometry" />
        </mxCell>
        <mxCell id="yeCOO_AYRYMsANn-B3B7-14" value="PIPE" style="text;html=1;align=center;verticalAlign=middle;whiteSpace=wrap;rounded=0;fontSize=10;fontColor=#333333;" parent="1" vertex="1">
          <mxGeometry x="425" y="559.87" width="45" height="20" as="geometry" />
        </mxCell>
        <mxCell id="yeCOO_AYRYMsANn-B3B7-15" value="INHERIT" style="text;html=1;align=center;verticalAlign=middle;whiteSpace=wrap;rounded=0;fontSize=10;fontColor=#333333;" parent="1" vertex="1">
          <mxGeometry x="550.5" y="559.87" width="94.5" height="20" as="geometry" />
        </mxCell>
        <mxCell id="yeCOO_AYRYMsANn-B3B7-16" value="" style="sketch=0;outlineConnect=0;dashed=0;verticalLabelPosition=bottom;verticalAlign=top;align=center;html=1;fontSize=12;fontStyle=0;aspect=fixed;pointerEvents=1;shape=mxgraph.aws4.gear;fillColor=#666666;strokeColor=#666666;strokeWidth=1;" parent="1" vertex="1">
          <mxGeometry x="326.5" y="595.87" width="18" height="18" as="geometry" />
        </mxCell>
        <mxCell id="yeCOO_AYRYMsANn-B3B7-17" value="" style="sketch=0;outlineConnect=0;dashed=0;verticalLabelPosition=bottom;verticalAlign=top;align=center;html=1;fontSize=12;fontStyle=0;aspect=fixed;pointerEvents=1;shape=mxgraph.aws4.gear;fillColor=#666666;strokeColor=#666666;strokeWidth=1;" parent="1" vertex="1">
          <mxGeometry x="526.5" y="595.87" width="18" height="18" as="geometry" />
        </mxCell>
        <mxCell id="yeCOO_AYRYMsANn-B3B7-18" value="" style="strokeWidth=1;html=1;shape=mxgraph.flowchart.extract_or_measurement;whiteSpace=wrap;rotation=90;fillColor=none;strokeColor=#666666;" parent="1" vertex="1">
          <mxGeometry x="440" y="439.87" width="15" height="15" as="geometry" />
        </mxCell>
        <mxCell id="yeCOO_AYRYMsANn-B3B7-19" value="2" style="ellipse;whiteSpace=wrap;html=1;aspect=fixed;fillColor=#f5f5f5;strokeColor=#666666;fontSize=10;fontColor=#333333;" parent="1" vertex="1">
          <mxGeometry x="412" y="472.87" width="18" height="18" as="geometry" />
        </mxCell>
        <mxCell id="yeCOO_AYRYMsANn-B3B7-20" value="2" style="ellipse;whiteSpace=wrap;html=1;aspect=fixed;fillColor=#f5f5f5;strokeColor=#666666;fontSize=10;fontColor=#333333;" parent="1" vertex="1">
          <mxGeometry x="214.25" y="591.87" width="18" height="18" as="geometry" />
        </mxCell>
        <mxCell id="yeCOO_AYRYMsANn-B3B7-21" value="&lt;font style=&quot;font-size: 8px;&quot; color=&quot;#666666&quot;&gt;TuzVszmByv&lt;/font&gt;&lt;div style=&quot;font-size: 8px;&quot;&gt;&lt;font style=&quot;font-size: 8px;&quot; color=&quot;#666666&quot;&gt;Aqswuvkggd&lt;/font&gt;&lt;/div&gt;" style="text;html=1;align=center;verticalAlign=middle;whiteSpace=wrap;rounded=0;fontSize=8;" parent="1" vertex="1">
          <mxGeometry x="365" y="585.87" width="90" height="30" as="geometry" />
        </mxCell>
        <mxCell id="yeCOO_AYRYMsANn-B3B7-22" value="&lt;font style=&quot;font-size: 8px;&quot; color=&quot;#666666&quot;&gt;TuzVszmByv&amp;nbsp;&lt;/font&gt;&lt;font color=&quot;#666666&quot;&gt;&amp;gt; 0 0 0&lt;/font&gt;&lt;div style=&quot;font-size: 8px;&quot;&gt;&lt;font style=&quot;font-size: 8px;&quot; color=&quot;#666666&quot;&gt;Aqswuvkggd &amp;gt; 1 0 0&lt;/font&gt;&lt;/div&gt;" style="text;html=1;align=center;verticalAlign=middle;whiteSpace=wrap;rounded=0;fontSize=8;" parent="1" vertex="1">
          <mxGeometry x="552.75" y="585.87" width="90" height="30" as="geometry" />
        </mxCell>
        <mxCell id="yeCOO_AYRYMsANn-B3B7-23" value="" style="endArrow=none;html=1;rounded=0;exitX=1;exitY=1;exitDx=0;exitDy=0;entryX=1;entryY=0.5;entryDx=0;entryDy=0;" parent="1" source="yeCOO_AYRYMsANn-B3B7-24" edge="1">
          <mxGeometry width="50" height="50" relative="1" as="geometry">
            <mxPoint x="242" y="578.6700000000001" as="sourcePoint" />
            <mxPoint x="176.5" y="579" as="targetPoint" />
          </mxGeometry>
        </mxCell>
        <mxCell id="yeCOO_AYRYMsANn-B3B7-24" value="INHERIT" style="text;html=1;align=center;verticalAlign=middle;whiteSpace=wrap;rounded=0;fontSize=10;fontColor=#333333;" parent="1" vertex="1">
          <mxGeometry x="176" y="559" width="94.5" height="20" as="geometry" />
        </mxCell>
      </root>
    </mxGraphModel>
  </diagram>
</mxfile>
